<?xml version="1.0" standalone="no"?>
<!DOCTYPE svg PUBLIC "-//W3C//DTD SVG 20010904//EN"
 "http://www.w3.org/TR/2001/REC-SVG-20010904/DTD/svg10.dtd">
<svg version="1.0" xmlns="http://www.w3.org/2000/svg"
 width="400.000000pt" height="400.000000pt" viewBox="0 0 400.000000 400.000000"
 preserveAspectRatio="xMidYMid meet">
<metadata>
Created by potrace 1.11, written by Peter Selinger 2001-2013
</metadata>
<g transform="translate(0.000000,400.000000) scale(0.100000,-0.100000)"
fill="#000000" stroke="none">
<path d="M0 2000 l0 -2000 2000 0 2000 0 0 2000 0 2000 -2000 0 -2000 0 0
-2000z m1750 1775 c313 -37 539 -141 718 -329 175 -185 313 -473 358 -746 14
-90 17 -207 21 -802 l5 -698 -336 0 -335 0 -3 762 -4 763 -25 83 c-59 186
-184 293 -399 339 -73 15 -138 18 -470 18 l-385 0 -3 -1478 -2 -1477 -340 0
-340 0 0 1790 0 1790 708 0 c562 0 733 -3 832 -15z m2040 -1775 l0 -1790 -708
0 c-562 0 -733 3 -832 15 -313 37 -539 141 -718 329 -175 185 -313 473 -358
746 -14 90 -17 207 -21 803 l-5 697 336 0 335 0 3 -762 c4 -689 6 -769 21
-823 44 -150 122 -247 249 -309 131 -64 192 -71 628 -71 l385 0 3 1478 2 1477
340 0 340 0 0 -1790z"/>
</g>
</svg>
